<?xml version="1.0" encoding="UTF-8"?>
<svg version="1.1" xmlns="http://www.w3.org/2000/svg" width="953" height="896">
<path d="M0 0 C314.49 0 628.98 0 953 0 C953 295.68 953 591.36 953 896 C638.51 896 324.02 896 0 896 C0 600.32 0 304.64 0 0 Z " fill="#FEFEFE" transform="translate(0,0)"/>
<path d="M0 0 C0.804375 -0.00128906 1.60875 -0.00257812 2.4375 -0.00390625 C3.283125 -0.00003906 4.12875 0.00382812 5 0.0078125 C6.2684375 0.00201172 6.2684375 0.00201172 7.5625 -0.00390625 C8.366875 -0.00261719 9.17125 -0.00132813 10 0 C10.7425 0.00112793 11.485 0.00225586 12.25 0.00341797 C14 0.1328125 14 0.1328125 15 1.1328125 C15.09643128 2.5037356 15.12371921 3.87959694 15.12304783 5.2539072 C15.12503888 6.14764752 15.12702993 7.04138784 15.12908131 7.96221119 C15.12616847 8.95538111 15.12325563 9.94855104 15.12025452 10.97181702 C15.12153615 12.54118276 15.12153615 12.54118276 15.12284368 14.14225286 C15.12450161 17.67696484 15.11897202 21.21163022 15.11352539 24.74633789 C15.11324356 27.2686208 15.11340117 29.79090379 15.1139679 32.31318665 C15.11419622 37.75836348 15.11134474 43.2035251 15.10573006 48.64869881 C15.09761735 56.5215905 15.09500007 64.3944764 15.09374207 72.26737183 C15.09155118 85.03933515 15.08489012 97.81129209 15.07543945 110.58325195 C15.06626627 122.99308236 15.05918498 135.40291103 15.05493164 147.81274414 C15.05466892 148.57715229 15.05440619 149.34156043 15.05413551 150.12913246 C15.05283051 153.96378405 15.05156679 157.79843566 15.05032361 161.63308728 C15.03994987 193.46633369 15.02225645 225.29957211 15 257.1328125 C16.3035591 257.13141895 17.60711821 257.13002541 18.9501791 257.12858963 C20.67800329 257.12746254 22.4058275 257.12636951 24.13365173 257.12530518 C25.41929779 257.1237955 25.41929779 257.1237955 26.7309165 257.12225533 C32.76458657 257.11946932 38.78671646 257.20009041 44.81640625 257.4296875 C46.20391838 257.47980232 46.20391838 257.47980232 47.61946106 257.53092957 C50.60074923 257.64211695 53.58162328 257.76111174 56.5625 257.8828125 C57.60359924 257.9247171 58.64469849 257.9666217 59.71734619 258.00979614 C92.32135697 259.35322069 124.92517755 261.86139403 157.32080078 265.8125 C160.03365801 266.13683649 162.74816298 266.43610286 165.46484375 266.7265625 C166.31175781 266.81728027 167.15867187 266.90799805 168.03125 267.00146484 C169.56364634 267.16471729 171.09618474 267.32664564 172.62890625 267.48681641 C175.8611567 267.83776909 178.83309034 268.34108508 182 269.1328125 C182 206.1028125 182 143.0728125 182 78.1328125 C188.27 78.1328125 194.54 78.1328125 201 78.1328125 C202.71543934 79.84825184 202.12232668 82.02579001 202.12908131 84.31330496 C202.12616847 85.06134514 202.12325563 85.80938532 202.12025452 86.58009338 C202.12153615 87.76356343 202.12153615 87.76356343 202.12284368 88.97094196 C202.12450089 91.63502877 202.11897321 94.29905368 202.11352539 96.96313477 C202.11324354 98.86473591 202.1134012 100.76633716 202.1139679 102.66793823 C202.11425597 107.84747534 202.10835763 113.02698951 202.10139394 118.20652127 C202.09516206 123.61309777 202.09455673 129.01967474 202.09336853 134.42625427 C202.09025472 144.67206541 202.08204067 154.91786593 202.07201904 165.16367239 C202.06085943 176.82489913 202.05534784 188.48612636 202.05032361 200.14735711 C202.0398581 224.1425148 202.0222577 248.13766306 202 272.1328125 C202.95253662 272.27380371 203.90507324 272.41479492 204.88647461 272.56005859 C208.4597185 273.08983952 212.03231233 273.62390037 215.60473633 274.15917969 C217.14362784 274.38916787 218.68268757 274.61803368 220.22192383 274.84570312 C228.20917233 276.02784701 236.14718648 277.22097849 244 279.1328125 C243.45853013 285.62967626 242.53417442 291.79155823 241 298.1328125 C232.74760266 297.33773103 224.6063642 295.95736885 216.4375 294.5703125 C215.03324152 294.33375632 213.62894491 294.09742642 212.22460938 293.86132812 C208.81596278 293.28776334 205.40784185 292.7111419 202 292.1328125 C202.00368717 293.13925686 202.00737434 294.14570122 202.01117325 295.18264389 C202.09990342 319.65214185 202.16567063 344.12161899 202.20724869 368.59124374 C202.22788907 380.42449403 202.25603792 392.25763816 202.30175781 404.09082031 C202.34158032 414.40254735 202.36742207 424.71419752 202.37635398 435.02599931 C202.38157649 440.48792678 202.393882 445.9496343 202.42292023 451.41149139 C202.45001681 456.5496427 202.45845663 461.68748289 202.45243073 466.82569885 C202.45353354 468.71395303 202.46152158 470.60221734 202.4768219 472.49040985 C202.49665995 475.06428397 202.49196219 477.63697625 202.48101807 480.21087646 C202.49266943 480.96185097 202.5043208 481.71282547 202.51632524 482.48655677 C202.47604919 485.97957308 202.24330009 487.81415481 200.09493637 490.6279335 C198 492.1328125 198 492.1328125 196 492.1328125 C195.7525 492.7515625 195.505 493.3703125 195.25 494.0078125 C193.76259631 496.53639877 192.56321991 496.85120254 190 498.1328125 C189.70802734 498.72868164 189.41605469 499.32455078 189.11523438 499.93847656 C187.79914641 502.52801216 186.2053355 504.18639312 184.15625 506.2421875 C183.40472656 506.99628906 182.65320313 507.75039063 181.87890625 508.52734375 C181.09386719 509.30464844 180.30882812 510.08195312 179.5 510.8828125 C178.32244141 512.07197266 178.32244141 512.07197266 177.12109375 513.28515625 C176.36957031 514.03410156 175.61804688 514.78304687 174.84375 515.5546875 C174.15474609 516.24143555 173.46574219 516.92818359 172.75585938 517.63574219 C171 519.1328125 171 519.1328125 169 519.1328125 C168.7834375 519.67421875 168.566875 520.215625 168.34375 520.7734375 C166.53500003 523.94926594 164.08276201 526.34009331 161.5 528.8828125 C161.00113281 529.38941406 160.50226563 529.89601563 159.98828125 530.41796875 C156.25341139 534.1328125 156.25341139 534.1328125 154 534.1328125 C154.00222061 535.00705872 154.00444122 535.88130493 154.00672913 536.78204346 C154.03382898 547.98229082 154.0518489 559.18253735 154.0625 570.3828125 C154.06335602 571.27660236 154.06421204 572.17039223 154.06509399 573.09126663 C154.09105917 603.78500769 153.7807191 634.44776344 153 665.1328125 C146.73 665.1328125 140.46 665.1328125 134 665.1328125 C133.505 612.6628125 133.505 612.6628125 133 559.1328125 C132.34 559.1328125 131.68 559.1328125 131 559.1328125 C130.175 559.9578125 129.35 560.7828125 128.5 561.6328125 C127.675 562.4578125 126.85 563.2828125 126 564.1328125 C125.34 564.1328125 124.68 564.1328125 124 564.1328125 C123.7525 564.70515625 123.505 565.2775 123.25 565.8671875 C121.80683801 568.48291861 120.11783778 570.28054706 118 572.3828125 C117.29875 573.08921875 116.5975 573.795625 115.875 574.5234375 C114 576.1328125 114 576.1328125 112 576.1328125 C111.62875 577.0609375 111.62875 577.0609375 111.25 578.0078125 C109.76259631 580.53639877 108.56321991 580.85120254 106 582.1328125 C105.67 582.7928125 105.34 583.4528125 105 584.1328125 C103.74191204 586.64898841 102.4699603 586.93767042 100 588.1328125 C99.67 589.1228125 99.34 590.1128125 99 591.1328125 C98.34 591.1328125 97.68 591.1328125 97 591.1328125 C96.67 592.1228125 96.34 593.1128125 96 594.1328125 C95.34 594.1328125 94.68 594.1328125 94 594.1328125 C93.67 595.1228125 93.34 596.1128125 93 597.1328125 C92.34 597.1328125 91.68 597.1328125 91 597.1328125 C90.67 598.1228125 90.34 599.1128125 90 600.1328125 C89.34 600.1328125 88.68 600.1328125 88 600.1328125 C87.67 601.1228125 87.34 602.1128125 87 603.1328125 C86.34 603.1328125 85.68 603.1328125 85 603.1328125 C84.67 604.1228125 84.34 605.1128125 84 606.1328125 C83.34 606.1328125 82.68 606.1328125 82 606.1328125 C81.67 607.1228125 81.34 608.1128125 81 609.1328125 C80.34 609.1328125 79.68 609.1328125 79 609.1328125 C79 609.7928125 79 610.4528125 79 611.1328125 C77.125 613.2578125 77.125 613.2578125 75 615.1328125 C74.34 615.1328125 73.68 615.1328125 73 615.1328125 C72.566875 616.0609375 72.566875 616.0609375 72.125 617.0078125 C71 619.1328125 71 619.1328125 69 621.1328125 C66.70944214 621.37332153 66.70944214 621.37332153 63.81591797 621.35986328 C62.71981201 621.35962158 61.62370605 621.35937988 60.49438477 621.35913086 C59.33865967 621.34889893 58.18293457 621.33866699 56.9921875 621.328125 C55.93265869 621.32611084 54.87312988 621.32409668 53.78149414 621.32202148 C49.8126189 621.31153456 45.84380523 621.28361213 41.875 621.2578125 C33.00625 621.2165625 24.1375 621.1753125 15 621.1328125 C14.67 643.5728125 14.34 666.0128125 14 689.1328125 C8.06 689.1328125 2.12 689.1328125 -4 689.1328125 C-4.33 667.0228125 -4.66 644.9128125 -5 622.1328125 C-22.21699819 621.96240016 -22.21699819 621.96240016 -39.43432617 621.83496094 C-41.59556206 621.80559181 -43.75677886 621.77476614 -45.91796875 621.7421875 C-47.03675415 621.74105957 -48.15553955 621.73993164 -49.30822754 621.73876953 C-57.24643303 621.59247605 -57.24643303 621.59247605 -61.13989258 619.2175293 C-62.06064575 618.18559448 -62.06064575 618.18559448 -63 617.1328125 C-63.6084375 616.48441406 -64.216875 615.83601562 -64.84375 615.16796875 C-65.3903125 614.51699219 -65.936875 613.86601563 -66.5 613.1953125 C-69.21006983 610.02769841 -72.01102697 607.04312834 -75 604.1328125 C-75.825 603.2871875 -76.65 602.4415625 -77.5 601.5703125 C-79.96583758 599.07552626 -79.96583758 599.07552626 -82.8125 596.9453125 C-83.534375 596.3471875 -84.25625 595.7490625 -85 595.1328125 C-85 594.4728125 -85 593.8128125 -85 593.1328125 C-85.66 593.1328125 -86.32 593.1328125 -87 593.1328125 C-87 592.4728125 -87 591.8128125 -87 591.1328125 C-88.32 590.4728125 -89.64 589.8128125 -91 589.1328125 C-91 588.4728125 -91 587.8128125 -91 587.1328125 C-91.639375 586.8646875 -92.27875 586.5965625 -92.9375 586.3203125 C-95 585.1328125 -95 585.1328125 -96 582.1328125 C-96.5775 581.8440625 -97.155 581.5553125 -97.75 581.2578125 C-102.59022887 578.83769806 -105.68402822 574.27777723 -109 570.1328125 C-112.33621023 566.61626658 -115.88088495 563.50625515 -119.64453125 560.46484375 C-120.09183594 560.02527344 -120.53914063 559.58570313 -121 559.1328125 C-121 558.4728125 -121 557.8128125 -121 557.1328125 C-121.99 556.8028125 -122.98 556.4728125 -124 556.1328125 C-124.33 592.1028125 -124.66 628.0728125 -125 665.1328125 C-131.27 665.1328125 -137.54 665.1328125 -144 665.1328125 C-145.17171146 662.78938958 -145.11065847 661.48811104 -145.08666992 658.87695312 C-145.08178055 657.93775024 -145.07689117 656.99854736 -145.07185364 656.03088379 C-145.06232162 654.96108276 -145.05278961 653.89128174 -145.04296875 652.7890625 C-145.0326889 650.31511048 -145.02422903 647.84115057 -145.01708984 645.3671875 C-145.01484185 644.67001869 -145.01259386 643.97284988 -145.01027775 643.25455475 C-144.96676806 626.89502522 -145.10983212 610.53470591 -145.23570442 594.17578125 C-145.28092014 588.26889257 -145.3201474 582.36208393 -145.34643555 576.45507812 C-145.3723576 570.66613124 -145.41261313 564.87745111 -145.46318626 559.08866882 C-145.47985194 556.89738745 -145.49136807 554.70606058 -145.49761391 552.51472473 C-145.50718059 549.47892612 -145.53512669 546.44383038 -145.56762695 543.40820312 C-145.56619186 542.50763184 -145.56475677 541.60706055 -145.5632782 540.67919922 C-145.57581635 539.85585083 -145.58835449 539.03250244 -145.60127258 538.1842041 C-145.60588155 537.46985451 -145.61049051 536.75550491 -145.61523914 536.01950836 C-146.10755042 533.60543313 -147.22894461 532.77985085 -149 531.1328125 C-149 530.4728125 -149 529.8128125 -149 529.1328125 C-149.639375 528.8646875 -150.27875 528.5965625 -150.9375 528.3203125 C-153 527.1328125 -153 527.1328125 -154 524.1328125 C-155.31433229 523.42942579 -156.65078789 522.76672803 -158 522.1328125 C-159.73925781 520.65234375 -159.73925781 520.65234375 -161.453125 518.9453125 C-162.071875 518.32914063 -162.690625 517.71296875 -163.328125 517.078125 C-163.96234375 516.43617188 -164.5965625 515.79421875 -165.25 515.1328125 C-165.8996875 514.49085938 -166.549375 513.84890625 -167.21875 513.1875 C-167.83234375 512.57132813 -168.4459375 511.95515625 -169.078125 511.3203125 C-169.63918945 510.75699219 -170.20025391 510.19367188 -170.77832031 509.61328125 C-172 508.1328125 -172 508.1328125 -172 506.1328125 C-172.58499268 505.87306641 -173.16998535 505.61332031 -173.77270508 505.34570312 C-176.15469945 504.04856972 -177.72918398 502.6471363 -179.63671875 500.7265625 C-180.29607422 500.06527344 -180.95542969 499.40398437 -181.63476562 498.72265625 C-182.65086914 497.68818359 -182.65086914 497.68818359 -183.6875 496.6328125 C-184.72100586 495.59833984 -184.72100586 495.59833984 -185.77539062 494.54296875 C-190.95542649 489.31709186 -192.14899549 486.918296 -192.12025452 479.48934937 C-192.12110894 478.69134781 -192.12196337 477.89334625 -192.12284368 477.07116282 C-192.12449799 474.38254313 -192.11897791 471.69398509 -192.11352539 469.00537109 C-192.11324348 467.08391827 -192.11340132 465.16246534 -192.1139679 463.24101257 C-192.11425573 458.01194956 -192.10836129 452.78290931 -192.10139394 447.5538516 C-192.09515804 442.0938958 -192.09455641 436.63393953 -192.09336853 431.17398071 C-192.09025591 420.82903821 -192.08204346 410.48410624 -192.07201904 400.13916838 C-192.06085575 388.36425676 -192.05534691 376.58934464 -192.05032361 364.81442904 C-192.03986079 340.58721769 -192.02226269 316.36001568 -192 292.1328125 C-193.59654419 292.40544922 -193.59654419 292.40544922 -195.2253418 292.68359375 C-199.18493107 293.35864046 -203.14542082 294.02826951 -207.10620117 294.69628906 C-208.81836476 294.98583304 -210.53028265 295.27683385 -212.24194336 295.56933594 C-214.70623204 295.99019035 -217.17136484 296.4057497 -219.63671875 296.8203125 C-220.39836838 296.95155518 -221.16001801 297.08279785 -221.94474792 297.21801758 C-225.66728704 297.83876602 -229.2235806 298.28948331 -233 298.1328125 C-233.50333542 295.52925009 -234.00279378 292.92504599 -234.5 290.3203125 C-234.71462891 289.21333008 -234.71462891 289.21333008 -234.93359375 288.08398438 C-235.50926281 285.05486859 -236 282.2236165 -236 279.1328125 C-232.7933824 278.51932778 -229.58439539 277.9190803 -226.375 277.3203125 C-225.07755859 277.0718457 -225.07755859 277.0718457 -223.75390625 276.81835938 C-216.71700325 275.51431791 -209.65685591 274.51377661 -202.56494141 273.55981445 C-201.54705032 273.42199806 -200.52915924 273.28418167 -199.48042297 273.14218903 C-196.98707968 272.80474785 -194.49360474 272.46831523 -192 272.1328125 C-192.00092179 271.13906396 -192.00184359 270.14531542 -192.00279331 269.12145329 C-192.02496012 244.97843743 -192.04141017 220.83542289 -192.05181217 196.69239902 C-192.05697577 185.01717836 -192.06401969 173.34196441 -192.07543945 161.66674805 C-192.08538434 151.49458577 -192.09185296 141.32242835 -192.09408849 131.15026134 C-192.09539594 125.76062 -192.09848388 120.37099256 -192.10573006 114.98135567 C-192.11248719 109.91469816 -192.11461759 104.84806036 -192.11310768 99.78139877 C-192.11338415 97.91608892 -192.11539108 96.05077846 -192.11920547 94.18547249 C-192.12413794 91.65032142 -192.12299996 89.11524599 -192.12025452 86.58009338 C-192.12462378 85.45803311 -192.12462378 85.45803311 -192.12908131 84.31330496 C-192.11412121 79.24693371 -192.11412121 79.24693371 -191 78.1328125 C-184.73 78.1328125 -178.46 78.1328125 -172 78.1328125 C-172 141.1628125 -172 204.1928125 -172 269.1328125 C-157.645 267.1528125 -157.645 267.1528125 -143 265.1328125 C-110.01059142 261.49961772 -76.97397861 259.24263664 -43.8125 257.9453125 C-42.72844879 257.90252167 -41.64439758 257.85973083 -40.52749634 257.81564331 C-37.39998755 257.69428227 -34.27233789 257.57824839 -31.14453125 257.46484375 C-29.78732971 257.41352798 -29.78732971 257.41352798 -28.40270996 257.36117554 C-22.98157648 257.17464151 -17.56674119 257.1150547 -12.1426239 257.12431335 C-11.4529923 257.12492689 -10.7633607 257.12554042 -10.05283117 257.12617254 C-8.36855341 257.12775998 -6.68427648 257.13019836 -5 257.1328125 C-5.00138269 255.15516199 -5.00138269 255.15516199 -5.00279331 253.13755894 C-5.02442931 221.87344609 -5.04092955 190.60933521 -5.05106533 159.34521664 C-5.05231611 155.50105912 -5.05361042 151.65690163 -5.05493164 147.81274414 C-5.05532511 146.66474153 -5.05532511 146.66474153 -5.05572652 145.49354696 C-5.06008338 133.0849558 -5.06797101 120.67636926 -5.0771528 108.26778085 C-5.08648891 95.54496669 -5.09205552 82.82215496 -5.09408849 70.09933752 C-5.09546381 62.24231803 -5.09981487 54.38531158 -5.10791647 46.52829611 C-5.11380407 40.51375794 -5.11445907 34.4992311 -5.11310768 28.48468971 C-5.11338421 26.00983347 -5.11539198 23.53497676 -5.11920547 21.06012344 C-5.12413572 17.697336 -5.12300077 14.33460561 -5.12025452 10.97181702 C-5.12462378 9.48206213 -5.12462378 9.48206213 -5.12908131 7.96221119 C-5.12609474 6.62160072 -5.12609474 6.62160072 -5.12304783 5.2539072 C-5.12342755 4.47661969 -5.12380727 3.69933217 -5.1241985 2.89849049 C-4.8830986 -0.52912572 -2.95960575 0.00449593 0 0 Z " fill="#414141" transform="translate(487,87.8671875)"/>
<path d="M0 0 C43.28364092 0 43.28364092 0 56.375 0.75 C57.56381271 0.81385391 57.56381271 0.81385391 58.77664185 0.8789978 C88.36879094 2.47618984 117.89656447 5.10196655 147.3125 8.6875 C148.20492401 8.79591217 149.09734802 8.90432434 150.01681519 9.01602173 C152.5080563 9.32141577 154.99833824 9.63343162 157.48828125 9.94921875 C158.2254538 10.04073212 158.96262634 10.13224548 159.72213745 10.22653198 C164.76491002 10.88245501 164.76491002 10.88245501 167 12 C170.76856351 41.04535287 173.22948142 70.11955651 174.625 99.375 C174.67785251 100.45230361 174.73070501 101.52960723 174.78515911 102.63955641 C177.3602803 156.61956542 175.280833 202.29337382 137.90655088 243.97632694 C127.93092716 254.92282338 117.19698461 264.99055512 106.125 274.8125 C105.39813523 275.45972487 104.67127047 276.10694975 103.92237949 276.7737875 C49.52765961 325.11798377 49.52765961 325.11798377 38.93334961 325.12939453 C37.67711037 325.13412277 37.67711037 325.13412277 36.39549255 325.13894653 C35.49025345 325.1369223 34.58501434 325.13489807 33.65234375 325.1328125 C32.72531143 325.13376923 31.79827911 325.13472595 30.84315491 325.13571167 C28.88200818 325.13639276 26.9208592 325.1345434 24.9597168 325.13037109 C21.94640073 325.12501582 18.93323332 325.13032158 15.91992188 325.13671875 C14.01822884 325.13605807 12.11653589 325.13477713 10.21484375 325.1328125 C9.30758041 325.13483673 8.40031708 325.13686096 7.46556091 325.13894653 C1.11495378 325.11495378 1.11495378 325.11495378 0 324 C-0.09417773 321.91380978 -0.11742878 319.82439523 -0.11352539 317.73608398 C-0.11367142 317.08244873 -0.11381744 316.42881348 -0.1139679 315.75537109 C-0.11326883 313.58557872 -0.10547678 311.41587121 -0.09765625 309.24609375 C-0.09579205 307.74536689 -0.09436816 306.24463943 -0.09336853 304.74391174 C-0.08954352 300.78681774 -0.0797134 296.82976022 -0.06866455 292.87268066 C-0.05845006 288.83765151 -0.05387083 284.80261647 -0.04882812 280.76757812 C-0.0380911 272.84503344 -0.02049445 264.92252546 0 257 C6.6 257 13.2 257 20 257 C20 250.73 20 244.46 20 238 C13.4 238 6.8 238 0 238 C0 228.1 0 218.2 0 208 C11.61384598 207.84090622 22.94222748 208.42166055 34.5 209.5 C36.11322297 209.64518032 37.72650422 209.78971453 39.33984375 209.93359375 C43.22727113 210.28165766 47.1138172 210.63831566 51 211 C51.13277344 209.87980469 51.26554688 208.75960937 51.40234375 207.60546875 C51.58056569 206.13279271 51.75896011 204.66013753 51.9375 203.1875 C52.02451172 202.44951172 52.11152344 201.71152344 52.20117188 200.95117188 C52.58216546 197.83266879 53.00369374 194.98891878 54 192 C36.00781717 190.33457938 18.0600686 188.71666939 0 188 C0 178.76 0 169.52 0 160 C6.6 160 13.2 160 20 160 C20 153.4 20 146.8 20 140 C13.4 140 6.8 140 0 140 C0 93.8 0 47.6 0 0 Z " fill="#FEFEFE" transform="translate(502,365)"/>
<path d="M0 0 C0 46.2 0 92.4 0 140 C-6.6 140 -13.2 140 -20 140 C-20 146.6 -20 153.2 -20 160 C-13.4 160 -6.8 160 0 160 C0 169.24 0 178.48 0 188 C-2.11535156 188.12117187 -4.23070312 188.24234375 -6.41015625 188.3671875 C-22.96638793 189.32828372 -39.48769823 190.43374736 -56 192 C-55.86722656 192.61746094 -55.73445313 193.23492188 -55.59765625 193.87109375 C-54.40799173 199.57627325 -53.5613574 205.19930684 -53 211 C-51.55101318 210.86368164 -51.55101318 210.86368164 -50.07275391 210.72460938 C-16.13289675 207.55597532 -16.13289675 207.55597532 0 208 C0 217.9 0 227.8 0 238 C-6.6 238 -13.2 238 -20 238 C-19.67 243.94 -19.34 249.88 -19 256 C-12.73 256.33 -6.46 256.66 0 257 C1.19255707 270.98202734 1.11306365 284.91228758 1.0625 298.9375 C1.05747423 301.37434804 1.05291323 303.81119708 1.04882812 306.24804688 C1.03790953 312.16538684 1.02125703 318.08268861 1 324 C-2.27936282 325.63968141 -5.911295 325.16310065 -9.515625 325.16796875 C-10.36421082 325.17129715 -11.21279663 325.17462555 -12.08709717 325.17805481 C-13.8860215 325.18312351 -15.68495525 325.18546315 -17.48388672 325.18530273 C-20.2250949 325.18748022 -22.96589479 325.2056114 -25.70703125 325.22460938 C-27.45572779 325.22754518 -29.20442625 325.22952872 -30.953125 325.23046875 C-31.76896057 325.23765427 -32.58479614 325.24483978 -33.425354 325.25224304 C-34.19925476 325.24916641 -34.97315552 325.24608978 -35.77050781 325.24291992 C-36.44398254 325.24434494 -37.11745728 325.24576996 -37.81134033 325.24723816 C-45.81116424 324.34355187 -51.55754261 319.33200788 -57.78857422 314.68066406 C-58.37075049 314.24796302 -58.95292677 313.81526198 -59.55274475 313.36944878 C-75.98289002 301.11174427 -91.59003607 287.89895214 -106.875 274.25 C-107.94788466 273.29637502 -107.94788466 273.29637502 -109.04244375 272.3234849 C-145.45942336 239.86578449 -171.28684532 208.36499901 -174.66286469 158.22500992 C-175.78472396 138.59354039 -175.51242019 119.06865653 -174.5625 99.4375 C-174.51141429 98.35374399 -174.46032858 97.26998798 -174.40769482 96.15339088 C-173.05484447 67.98118531 -170.59582732 39.97278682 -167 12 C-165.42424959 11.67811745 -163.84811299 11.35812516 -162.27182007 11.03890991 C-161.39415167 10.86050756 -160.51648327 10.68210522 -159.61221886 10.49829674 C-155.83424588 9.77762527 -152.04561863 9.29383062 -148.2265625 8.8515625 C-147.40540451 8.75416779 -146.58424652 8.65677307 -145.73820496 8.556427 C-143.03451237 8.23941555 -140.32996038 7.93099729 -137.625 7.625 C-136.21303848 7.46408875 -136.21303848 7.46408875 -134.77255249 7.29992676 C-118.47777788 5.45867083 -102.16185104 4.00929866 -85.8125 2.75 C-84.22263275 2.62591766 -84.22263275 2.62591766 -82.60064697 2.49932861 C-55.01990155 0.36718601 -27.74152312 0 0 0 Z " fill="#FEFEFE" transform="translate(482,365)"/>
</svg>
